<svg width="1443" height="1028" viewBox="0 0 1443 1028" fill="none" xmlns="http://www.w3.org/2000/svg">
<line x1="362.5" y1="2.00005" x2="362.5" y2="1026" stroke="#F0E3CD"/>
<line x1="1080.5" y1="2.00005" x2="1080.5" y2="1026" stroke="#F0E3CD"/>
<path d="M511.5 514C511.5 796.327 282.764 1025.23 0.5 1025.5V2.50028C282.764 2.77031 511.5 231.673 511.5 514Z" stroke="#F0E3CD"/>
<path d="M721 516.5C1003.33 516.5 1232.23 745.236 1232.5 1027.5L209.5 1027.5C209.77 745.236 438.673 516.5 721 516.5Z" stroke="#F0E3CD"/>
<path d="M721 511.5C438.673 511.5 209.77 282.764 209.5 0.500001L1232.5 0.500046C1232.23 282.764 1003.33 511.5 721 511.5Z" stroke="#F0E3CD"/>
<path d="M931.5 514C931.5 231.673 1160.24 2.77024 1442.5 2.50024L1442.5 1025.5C1160.24 1025.23 931.5 796.327 931.5 514Z" stroke="#F0E3CD"/>
</svg>
