<svg width="413" height="736" viewBox="0 0 413 736" fill="none" xmlns="http://www.w3.org/2000/svg">
<path opacity="0.39" fill-rule="evenodd" clip-rule="evenodd" d="M104 1L1.00235 1C1.36064 77.3081 42.7074 143.854 104 179.452L104 1ZM105 180.029L105 1L308 1.00001V180.029C298.404 185.531 288.325 190.276 277.843 194.185C259.392 176.121 234.234 165 206.5 165C178.766 165 153.608 176.121 135.157 194.185C124.675 190.276 114.596 185.531 105 180.029ZM105 181.182C104.666 180.991 104.333 180.8 104 180.608C42.1317 144.907 0.361619 77.8823 0.00233613 1C0.000779273 0.666851 0 0.333517 0 0H1L412 1.80091e-05L413 1.80528e-05C413 0.333535 412.999 0.666869 412.998 1.00002C412.638 77.8823 370.868 144.907 309 180.608C308.667 180.8 308.334 180.991 308 181.182C298.639 186.514 288.823 191.131 278.626 194.96C278.283 195.089 277.939 195.217 277.594 195.344C277.855 195.603 278.114 195.862 278.372 196.123C296.67 214.653 307.987 240.218 308 268.452C308 268.468 308 268.484 308 268.5C308 268.516 308 268.532 308 268.549C307.976 321.689 267.907 365.373 216.614 370.497C213.287 370.83 209.913 371 206.5 371C203.087 371 199.713 370.83 196.386 370.497C145.077 365.372 105 321.662 105 268.5C105 240.247 116.319 214.664 134.628 196.123C134.886 195.862 135.145 195.603 135.406 195.344C135.061 195.217 134.717 195.089 134.374 194.96C124.177 191.131 114.361 186.514 105 181.182ZM216.614 371.503C213.287 371.17 209.913 371 206.5 371C203.087 371 199.713 371.17 196.386 371.503C145.077 376.629 105 420.338 105 473.5C105 499.571 114.639 523.369 130.514 541.458C130.748 541.724 130.983 541.99 131.22 542.254C130.89 542.384 130.56 542.516 130.231 542.647C121.513 546.139 113.087 550.212 105 554.819C104.666 555.009 104.333 555.2 104 555.392C42.1317 591.093 0.361632 658.118 0.00234528 735C0.000788402 735.333 9.09595e-06 735.667 9.09197e-06 736H1.00001H104H105H308H309H412H413C413 735.667 412.999 735.333 412.998 735C412.638 658.118 370.868 591.092 309 555.392C308.667 555.2 308.334 555.009 308 554.818C299.913 550.212 291.487 546.139 282.769 542.647C282.44 542.515 282.11 542.384 281.78 542.254C282.017 541.99 282.252 541.724 282.486 541.458C298.348 523.384 307.984 499.61 308 473.564C308 473.543 308 473.522 308 473.5C308 473.479 308 473.457 308 473.436C307.968 420.303 267.902 376.626 216.614 371.503ZM206.5 372C151.005 372 106 417.434 106 473.5C106 499.451 115.642 523.124 131.503 541.068C154.763 531.983 180.053 527 206.5 527C232.947 527 258.237 531.983 281.497 541.068C297.358 523.124 307 499.451 307 473.5C307 417.434 261.995 372 206.5 372ZM280.062 542.657C257.222 533.835 232.421 529 206.5 529C180.579 529 155.778 533.835 132.938 542.657C151.287 562.556 177.457 575 206.5 575C235.543 575 261.713 562.556 280.062 542.657ZM130.943 543.44C121.969 547.016 113.304 551.21 105 555.971L105 735H308V555.971C299.696 551.21 291.031 547.016 282.057 543.44C263.321 564.067 236.408 577 206.5 577C176.592 577 149.679 564.067 130.943 543.44ZM309 556.548V735H411.998C411.639 658.692 370.293 592.146 309 556.548ZM104 735L104 556.548C42.7074 592.147 1.36065 658.692 1.00236 735H104ZM135.659 196.504C117.342 214.888 106 240.354 106 268.5C106 324.566 151.005 370 206.5 370C261.995 370 307 324.566 307 268.5C307 240.354 295.658 214.888 277.341 196.504C255.236 204.59 231.38 209 206.5 209C181.62 209 157.764 204.59 135.659 196.504ZM275.758 194.95C257.73 177.629 233.342 167 206.5 167C179.658 167 155.27 177.629 137.242 194.95C158.882 202.751 182.198 207 206.5 207C230.802 207 254.118 202.751 275.758 194.95ZM309 179.452C370.293 143.854 411.639 77.3081 411.998 1.00002L309 1.00001V179.452Z" fill="#E7DBC9"/>
</svg>
