<svg width="402" height="227" viewBox="0 0 402 227" fill="none" xmlns="http://www.w3.org/2000/svg">
<rect x="29.6574" y="66.2753" width="343.481" height="131.735" rx="9" stroke="#4F422C" stroke-width="2"/>
<path d="M23.3574 14.6912C20.6185 18.3103 19.1987 23.5295 18.6611 29.4853C18.1241 35.4349 18.4797 41.9959 19.2077 48.1373C19.9346 54.27 21.0263 59.9312 21.9378 64.0634C21.969 64.205 22 64.3448 22.0308 64.4828H21.851V67.7274C19.3476 57.3749 13.0341 26.6376 22.7405 13.8115C29.867 4.39448 37.6261 5.02173 46.7115 5.7562C49.2836 5.96413 51.962 6.18065 54.7625 6.18029C62.7693 6.17927 68.7248 8.95255 74.7531 11.7597C80.3561 14.3688 86.0218 17.0071 93.4558 17.4745C103.215 18.0881 111.212 13.0478 118.863 8.22538C128.525 2.13552 137.636 -3.60695 149.05 2.82256C154.666 5.98662 162.379 13.7985 162.392 13.8115H160.868C160.779 13.7253 160.685 13.6343 160.587 13.5389C159.781 12.7623 158.65 11.694 157.344 10.528C154.719 8.184 151.441 5.48975 148.712 3.95214C138.849 -1.60402 130.774 2.20823 122.228 7.46315C121.241 8.07044 120.246 8.69788 119.242 9.33147C111.605 14.1492 103.405 19.3223 93.4151 18.6942C85.8532 18.2188 80.083 15.5314 74.4885 12.9258C74.2687 12.8235 74.0492 12.7213 73.8299 12.6193C68.027 9.92158 62.3304 7.40032 54.7626 7.40129C51.9341 7.40165 49.2284 7.18285 46.6584 6.97503C46.3162 6.94736 45.9764 6.91988 45.639 6.89314C42.7549 6.66454 40.0517 6.49013 37.4696 6.68454C32.3463 7.07026 27.7373 8.90352 23.3574 14.6912Z" fill="black"/>
<path d="M123.809 43.7258C123.809 50.4335 128.304 55.5463 133.483 55.5463C138.662 55.5463 143.157 50.4335 143.157 43.7258C143.157 37.0182 138.662 31.9054 133.483 31.9054C128.304 31.9054 123.809 37.0182 123.809 43.7258Z" stroke="black" stroke-width="2"/>
<ellipse rx="2.44613" ry="3.35773" transform="matrix(-1 0 0 1 133.706 47.0836)" fill="#020202"/>
<path d="M51.315 49.8308C51.315 56.4217 56.3042 61.6513 62.3232 61.6513C68.3423 61.6513 73.3315 56.4217 73.3315 49.8308C73.3315 43.2399 68.3423 38.0104 62.3232 38.0104C56.3042 38.0104 51.315 43.2399 51.315 49.8308Z" stroke="black" stroke-width="2"/>
<ellipse rx="2.44613" ry="3.35773" transform="matrix(-1 0 0 1 64.7694 55.6306)" fill="#020202"/>
<rect x="4.1842" y="143.879" width="17.1049" height="33.0257" rx="5" transform="rotate(-90 4.1842 143.879)" fill="#FDF9F2" stroke="black" stroke-width="2"/>
<path d="M27.8615 141.695L27.8614 128.958L30.0258 128.958C32.7872 128.958 35.0258 131.197 35.0258 133.958L35.0258 136.695C35.0258 139.456 32.7872 141.695 30.0258 141.695L27.8615 141.695Z" fill="black"/>
<line x1="16.2169" y1="140.103" x2="16.2169" y2="130.55" stroke="black"/>
<line x1="14.6248" y1="140.103" x2="14.6248" y2="132.143" stroke="black"/>
<rect x="1" y="163.78" width="17.1049" height="33.0257" rx="5" transform="rotate(-90 1 163.78)" fill="#FDF9F2" stroke="black" stroke-width="2"/>
<path d="M24.6772 161.596L24.6772 148.859L26.8415 148.859C29.603 148.859 31.8415 151.098 31.8415 153.859L31.8415 158.596C31.8415 160.253 30.4984 161.596 28.8415 161.596L24.6772 161.596Z" fill="black"/>
<line x1="12.2366" y1="160.004" x2="12.2366" y2="150.452" stroke="black"/>
<line x1="10.6446" y1="160.004" x2="10.6446" y2="149.656" stroke="black"/>
<rect x="4.1842" y="184.477" width="17.901" height="33.0257" rx="5" transform="rotate(-90 4.1842 184.477)" fill="#FDF9F2" stroke="black" stroke-width="2"/>
<path d="M27.8615 182.293L27.8614 169.556L30.0258 169.556C32.7872 169.556 35.0258 171.795 35.0258 174.556L35.0258 177.293C35.0258 180.054 32.7872 182.293 30.0258 182.293L27.8615 182.293Z" fill="black"/>
<line y1="-0.5" x2="9.55247" y2="-0.5" transform="matrix(-4.37114e-08 -1 -1 4.37114e-08 16.7169 180.701)" stroke="black"/>
<line y1="-0.5" x2="10.3485" y2="-0.5" transform="matrix(-4.37114e-08 -1 -1 4.37114e-08 18.3089 180.701)" stroke="black"/>
<rect x="1.79602" y="123.978" width="16.3089" height="33.0257" rx="5" transform="rotate(-90 1.79602 123.978)" fill="#FDF9F2" stroke="black" stroke-width="2"/>
<path d="M25.4733 121.794L25.4733 109.057L27.6376 109.057C30.399 109.057 32.6376 111.296 32.6376 114.057L32.6376 116.794C32.6376 119.555 30.399 121.794 27.6376 121.794L25.4733 121.794Z" fill="black"/>
<line x1="13.0327" y1="120.998" x2="13.0327" y2="110.65" stroke="black"/>
<line y1="-0.5" x2="10.3485" y2="-0.5" transform="matrix(-4.37114e-08 -1 -1 4.37114e-08 15.1248 120.998)" stroke="black"/>
<rect x="397.816" y="113.242" width="17.1049" height="33.0257" rx="5" transform="rotate(90 397.816 113.242)" fill="#FDF9F2" stroke="black" stroke-width="2"/>
<path d="M374.138 115.426L374.138 128.162L371.974 128.162C369.213 128.162 366.974 125.924 366.974 123.162L366.974 120.426C366.974 117.664 369.213 115.426 371.974 115.426L374.138 115.426Z" fill="black"/>
<line x1="385.783" y1="117.018" x2="385.783" y2="126.57" stroke="black"/>
<line x1="387.375" y1="117.018" x2="387.375" y2="124.978" stroke="black"/>
<rect x="401" y="93.3406" width="17.1049" height="33.0257" rx="5" transform="rotate(90 401 93.3406)" fill="#FDF9F2" stroke="black" stroke-width="2"/>
<path d="M377.323 95.5248L377.323 108.261L375.158 108.261C372.397 108.261 370.158 106.023 370.158 103.261L370.158 98.5248C370.158 96.8679 371.502 95.5248 373.158 95.5248L377.323 95.5248Z" fill="black"/>
<line x1="389.763" y1="97.1168" x2="389.763" y2="106.669" stroke="black"/>
<line x1="391.355" y1="97.1168" x2="391.355" y2="107.465" stroke="black"/>
<rect x="397.816" y="72.6436" width="17.901" height="33.0257" rx="5" transform="rotate(90 397.816 72.6436)" fill="#FDF9F2" stroke="black" stroke-width="2"/>
<path d="M374.138 74.8276L374.138 87.5643L371.974 87.5643C369.213 87.5643 366.974 85.3257 366.974 82.5643L366.974 79.8276C366.974 77.0662 369.213 74.8276 371.974 74.8276L374.138 74.8276Z" fill="black"/>
<line y1="-0.5" x2="9.55247" y2="-0.5" transform="matrix(-4.37114e-08 1 1 4.37114e-08 385.283 76.4198)" stroke="black"/>
<line y1="-0.5" x2="10.3485" y2="-0.5" transform="matrix(-4.37114e-08 1 1 4.37114e-08 383.691 76.4198)" stroke="black"/>
<rect x="400.204" y="133.143" width="16.3089" height="33.0257" rx="5" transform="rotate(90 400.204 133.143)" fill="#FDF9F2" stroke="black" stroke-width="2"/>
<path d="M376.527 135.327L376.527 148.063L374.362 148.063C371.601 148.063 369.362 145.825 369.362 143.063L369.362 140.327C369.362 137.565 371.601 135.327 374.362 135.327L376.527 135.327Z" fill="black"/>
<line x1="388.967" y1="136.123" x2="388.967" y2="146.471" stroke="black"/>
<line y1="-0.5" x2="10.3485" y2="-0.5" transform="matrix(-4.37114e-08 1 1 4.37114e-08 386.875 136.123)" stroke="black"/>
<rect x="107.261" y="222.687" width="17.1049" height="33.0257" rx="5" transform="rotate(-180 107.261 222.687)" fill="#FDF9F2" stroke="black" stroke-width="2"/>
<path d="M105.077 199.01L92.3406 199.01L92.3406 196.845C92.3406 194.084 94.5792 191.845 97.3406 191.845L100.077 191.845C102.839 191.845 105.077 194.084 105.077 196.845L105.077 199.01Z" fill="black"/>
<line x1="103.485" y1="210.654" x2="93.9326" y2="210.654" stroke="black"/>
<line x1="103.485" y1="212.246" x2="95.5247" y2="212.246" stroke="black"/>
<rect x="127.162" y="225.871" width="17.1049" height="33.0257" rx="5" transform="rotate(-180 127.162 225.871)" fill="#FDF9F2" stroke="black" stroke-width="2"/>
<path d="M124.978 202.194L112.242 202.194L112.242 200.03C112.242 197.268 114.48 195.03 117.242 195.03L121.978 195.03C123.635 195.03 124.978 196.373 124.978 198.03L124.978 202.194Z" fill="black"/>
<line x1="123.386" y1="214.635" x2="113.834" y2="214.635" stroke="black"/>
<line x1="123.386" y1="216.227" x2="113.038" y2="216.227" stroke="black"/>
<rect x="147.859" y="222.687" width="17.901" height="33.0257" rx="5" transform="rotate(-180 147.859 222.687)" fill="#FDF9F2" stroke="black" stroke-width="2"/>
<path d="M145.675 199.01L132.939 199.01L132.939 196.845C132.939 194.084 135.177 191.845 137.939 191.845L140.675 191.845C143.437 191.845 145.675 194.084 145.675 196.845L145.675 199.01Z" fill="black"/>
<line y1="-0.5" x2="9.55247" y2="-0.5" transform="matrix(-1 -8.74228e-08 -8.74228e-08 1 144.083 210.154)" stroke="black"/>
<line y1="-0.5" x2="10.3485" y2="-0.5" transform="matrix(-1 -8.74228e-08 -8.74228e-08 1 144.083 208.562)" stroke="black"/>
<rect x="87.3604" y="225.075" width="16.3089" height="33.0257" rx="5" transform="rotate(-180 87.3604 225.075)" fill="#FDF9F2" stroke="black" stroke-width="2"/>
<path d="M85.1761 201.398L72.4395 201.398L72.4395 199.234C72.4395 196.472 74.678 194.234 77.4395 194.234L80.1761 194.234C82.9375 194.234 85.1761 196.472 85.1761 199.234L85.1761 201.398Z" fill="black"/>
<line x1="84.3801" y1="213.839" x2="74.0315" y2="213.839" stroke="black"/>
<line y1="-0.5" x2="10.3485" y2="-0.5" transform="matrix(-1 -8.74228e-08 -8.74228e-08 1 84.3801 211.746)" stroke="black"/>
</svg>
